<?xml version="1.0" encoding="UTF-8" standalone="no"?>
<!DOCTYPE svg PUBLIC "-//W3C//DTD SVG 1.1//EN" "http://www.w3.org/Graphics/SVG/1.1/DTD/svg11.dtd">
<svg width="100%" height="100%" viewBox="0 0 1259 1252" version="1.1" xmlns="http://www.w3.org/2000/svg" xmlns:xlink="http://www.w3.org/1999/xlink" xml:space="preserve" xmlns:serif="http://www.serif.com/" style="fill-rule:evenodd;clip-rule:evenodd;stroke-linejoin:round;stroke-miterlimit:2;">
    <g transform="matrix(1,0,0,1,-370.757399,-374.355238)">
        <g transform="matrix(1,0,0,1,-0.36087,0.355238)">
            <g transform="matrix(1.953125,0,0,1.953125,14,208)">
                <path d="M615.565,694.221C744.52,716.65 790.175,579.46 718.598,511.397C656.044,451.915 532.975,418.478 486.002,336.783C419.27,220.72 504.828,76.214 646.464,85.892C664.491,87.123 692.435,95.209 707.311,102.871C746.316,122.959 767.208,148.96 767.325,149.473C767.834,151.705 762.599,147.266 762.254,146.973C725.624,115.912 630.608,84.185 567.438,153.444C544.491,178.604 511.21,257.877 573.756,318.223C594.063,337.815 620.353,351.465 707.325,402.799C750.441,428.248 827.98,478.594 827.183,575.496C826.68,636.629 788.149,674.191 781.586,680.588C726.601,734.191 644.277,741.217 581.152,694.971C578.046,692.695 559.79,679.32 545.681,662.424C530.745,644.538 550.751,666.958 571.266,677.923C578.953,682.031 592.92,689.341 615.565,694.221Z" style="fill:rgb(0,210,234);"/>
            </g>
            <g transform="matrix(1.953125,0,0,1.953125,14,208)">
                <path d="M243.015,350.371C245.113,343.06 247.635,334.272 267.258,258.44C277.158,220.184 315.417,220.936 331.416,233.61C358.145,254.784 343.482,286.229 338.37,306.468C317.01,391.036 314.058,398.338 312.266,405.442C288.823,498.341 265.841,569.364 264.425,597.497C259.834,688.671 354.482,689.018 398.657,650.739C406.528,643.919 399.268,654.017 399.102,654.247C386.105,672.327 366.536,697.281 335.693,712.872C328.526,716.494 281.88,740.073 235.321,711.799C171.643,673.13 182.51,595.339 185.322,575.473C189.593,545.303 235.409,383.034 243.015,350.371Z" style="fill:rgb(0,210,234);"/>
            </g>
            <g transform="matrix(1.953125,0,0,1.953125,14,208)">
                <path d="M562.589,202.562C548.347,221.728 550.533,241.447 547.822,233.42C547.322,231.941 550.225,214.165 550.497,212.5C556.019,178.676 582.87,141.89 619.563,129.691C690.477,106.114 777.964,141.474 809.529,226.488C838.046,303.289 823.038,317.967 813.861,326.872C794.774,345.396 751.462,338.296 745.851,305.436C741.19,278.139 742.332,276.449 725.219,235.62C715.735,212.994 696.548,193.693 693.438,190.564C674.045,171.056 623.321,153.01 583.647,181.713C570.348,191.335 570.632,191.722 562.589,202.562Z" style="fill:rgb(0,210,234);"/>
            </g>
            <g transform="matrix(1.953125,0,0,1.953125,14,208)">
                <path d="M309.546,630.567C339.51,607.93 354.106,565.527 374.069,531.246C405.392,477.458 443.389,472.145 449.591,470.987C529.477,456.075 564.715,527.34 567.287,530.63C572.995,537.931 562.491,530.205 562.157,529.96C554.243,524.139 534.497,515.697 519.512,515.201C483.037,513.994 466.286,533.531 453.954,550.835C430.09,584.321 415.569,652.206 346.44,663.121C297.263,670.886 277.29,637.168 282.497,636.491C287.739,635.808 290.03,645.113 309.546,630.567Z" style="fill:rgb(0,210,234);"/>
            </g>
            <g transform="matrix(1.953125,0,0,1.953125,14,208)">
                <path d="M742.677,584.937C744.386,588.557 741.586,612.383 736.55,625.519C711.591,690.611 637.16,696.909 590.287,675.957C519.323,644.236 514.494,598.677 495.09,569.769C478.139,544.516 466.686,558.634 463.942,555.134C462.395,553.162 487.391,517.515 529.401,526.962C577.353,537.746 590.577,580.194 596.174,590.68C637.932,668.918 700.383,639.273 706.821,634.965C738.173,613.985 736.419,596.857 742.677,584.937Z" style="fill:rgb(0,210,234);"/>
            </g>
            <g transform="matrix(0.755814,0,0,1.06044,234.639535,174.637363)">
                <ellipse cx="578" cy="279" rx="129" ry="91" style="fill:rgb(0,210,234);"/>
            </g>
        </g>
    </g>
</svg>
